HIERARCHY
ROOT Hips
{
	OFFSET -0.001795 -0.223333 0.028219
	CHANNELS 6 Xposition Yposition Zposition Zrotation Yrotation Xrotation 
	JOINT LeftUpLeg
	{
		OFFSET 0.069520 -0.091406 -0.006815
		CHANNELS 3 Zrotation Yrotation Xrotation
		JOINT LeftLeg
		{
			OFFSET 0.034277 -0.375199 -0.004496
			CHANNELS 3 Zrotation Yrotation Xrotation
			JOINT LeftFoot
			{
				OFFSET -0.013596 -0.397961 -0.043693
				CHANNELS 3 Zrotation Yrotation Xrotation
				JOINT LeftToe
				{
					OFFSET 0.026358 -0.055791 0.119288
					CHANNELS 3 Zrotation Yrotation Xrotation
					End Site
					{
						OFFSET 0.000000 0.000000 0.000000
					}
				}
			}
		}
	}
	JOINT RightUpLeg
	{
		OFFSET -0.067670 -0.090522 -0.004320
		CHANNELS 3 Zrotation Yrotation Xrotation
		JOINT RightLeg
		{
			OFFSET -0.038290 -0.382569 -0.008850
			CHANNELS 3 Zrotation Yrotation Xrotation
			JOINT RightFoot
			{
				OFFSET 0.015774 -0.398415 -0.042312
				CHANNELS 3 Zrotation Yrotation Xrotation
				JOINT RightToe
				{
					OFFSET -0.025372 -0.048144 0.123348
					CHANNELS 3 Zrotation Yrotation Xrotation
					End Site
					{
						OFFSET 0.000000 0.000000 0.000000
					}
				}
			}
		}
	}
	JOINT Spine
	{
		OFFSET -0.002533 0.108963 -0.026696
		CHANNELS 3 Zrotation Yrotation Xrotation
		JOINT Spine1
		{
			OFFSET 0.005487 0.135180 0.001092
			CHANNELS 3 Zrotation Yrotation Xrotation
			JOINT Spine2
			{
				OFFSET 0.001457 0.052922 0.025425
				CHANNELS 3 Zrotation Yrotation Xrotation
				JOINT Neck
				{
					OFFSET -0.002778 0.213870 -0.042857
					CHANNELS 3 Zrotation Yrotation Xrotation
					JOINT Head
					{
						OFFSET 0.005152 0.064970 0.051349
						CHANNELS 3 Zrotation Yrotation Xrotation
						End Site
						{
							OFFSET 0.000000 0.000000 0.000000
						}
					}
				}
				JOINT LeftShoulder
				{
					OFFSET 0.078845 0.121749 -0.034090
					CHANNELS 3 Zrotation Yrotation Xrotation
					JOINT LeftArm
					{
						OFFSET 0.090977 0.030469 -0.008868
						CHANNELS 3 Zrotation Yrotation Xrotation
						JOINT LeftForeArm
						{
							OFFSET 0.259612 -0.012772 -0.027456
							CHANNELS 3 Zrotation Yrotation Xrotation
							JOINT LeftHand
							{
								OFFSET 0.249234 0.008986 -0.001171
								CHANNELS 3 Zrotation Yrotation Xrotation
								End Site
								{
									OFFSET 0.000000 0.000000 0.000000
								}
							}
						}
					}
				}
				JOINT RightShoulder
				{
					OFFSET -0.081759 0.118833 -0.038615
					CHANNELS 3 Zrotation Yrotation Xrotation
					JOINT RightArm
					{
						OFFSET -0.096012 0.032551 -0.009143
						CHANNELS 3 Zrotation Yrotation Xrotation
						JOINT RightForeArm
						{
							OFFSET -0.253742 -0.013329 -0.021401
							CHANNELS 3 Zrotation Yrotation Xrotation
							JOINT RightHand
							{
								OFFSET -0.255298 0.007772 -0.005559
								CHANNELS 3 Zrotation Yrotation Xrotation
								End Site
								{
									OFFSET 0.000000 0.000000 0.000000
								}
							}
						}
					}
				}
			}
		}
	}
}
MOTION
Frames: 7
Frame Time: 0.050000
0.004542 0.928541 -0.151340 -3.966509 -0.738680 13.234743 2.859196 -1.439009 -21.339924 -3.071131 0.314842 2.481497 11.924978 23.566452 10.196362 0.000000 0.000000 0.000000 3.991678 3.218664 -24.699353 3.960123 -0.369468 3.899853 -11.164694 -25.297416 16.115174 0.000000 0.000000 0.000000 -6.647380 1.038480 37.577655 6.958496 -1.498359 -17.493556 3.553442 2.055218 32.782081 -5.744689 5.390250 -8.361274 0.000000 0.000000 0.000000 -22.165237 -6.857845 2.474333 -59.928172 -19.623876 -0.314132 -79.376025 -67.065136 65.425236 0.000000 0.000000 0.000000 9.454541 16.807936 7.553394 59.625317 20.716027 1.920914 141.623935 64.153751 134.733040 0.000000 0.000000 0.000000 
0.005073 0.928444 -0.148286 -3.808885 -0.855288 12.836971 2.555977 -1.445810 -20.785022 -2.974519 0.303443 2.457770 11.594244 23.044907 9.978683 0.000000 0.000000 0.000000 3.727699 3.097709 -24.107068 4.375682 -0.424211 3.906389 -10.861860 -24.847129 15.625461 0.000000 0.000000 0.000000 -7.119383 1.227009 37.357612 7.005923 -1.556906 -17.062028 3.983269 2.353474 32.372710 -6.051198 5.655819 -8.799315 0.000000 0.000000 0.000000 -22.868808 -7.630156 2.820336 -60.046135 -20.283573 0.116566 -71.461286 -67.955749 59.071001 0.000000 0.000000 0.000000 10.312398 17.052635 7.824960 59.745039 19.647045 1.422195 140.661520 67.108041 135.787279 0.000000 0.000000 0.000000 
0.005158 0.928009 -0.144366 -3.982168 -0.641694 12.323385 2.610645 -1.405685 -20.189553 -2.863530 0.284943 2.873317 11.548272 23.012788 9.279007 0.000000 0.000000 0.000000 4.100146 3.058635 -23.426792 4.041092 -0.382613 3.992430 -11.372286 -25.619229 15.631999 0.000000 0.000000 0.000000 -7.295957 1.241797 37.134793 7.356811 -1.620180 -17.526614 3.897298 2.128224 32.408276 -6.258829 5.822052 -8.784628 0.000000 0.000000 0.000000 -23.919107 -7.859978 2.996401 -59.350691 -20.798219 0.333005 -62.871761 -68.313408 52.078956 0.000000 0.000000 0.000000 11.445920 17.586380 8.231064 59.451886 18.731733 0.858655 137.972939 71.067592 135.137537 0.000000 0.000000 0.000000 
0.004761 0.927588 -0.139597 -3.829312 -0.573484 11.758786 2.327004 -1.396106 -19.390535 -2.437453 0.222916 3.317901 11.020023 22.188593 8.610280 0.000000 0.000000 0.000000 4.004738 2.966929 -22.882685 4.161784 -0.399336 4.435435 -11.196984 -25.372547 14.966878 0.000000 0.000000 0.000000 -7.652190 1.334970 36.413031 7.589589 -1.746859 -16.960309 3.788189 1.800989 31.786715 -6.284229 5.805027 -8.702564 0.000000 0.000000 0.000000 -24.556336 -8.234126 3.322639 -58.981060 -21.178561 0.547329 -50.925674 -67.463696 41.840859 0.000000 0.000000 0.000000 12.621702 17.746896 8.420547 59.468505 17.713422 0.345908 134.417854 74.543579 133.014417 0.000000 0.000000 0.000000 
0.003980 0.927689 -0.133971 -4.041400 -0.488560 11.169292 2.582702 -1.312877 -18.628036 -2.175788 0.180533 3.797520 11.012417 22.193482 7.899529 0.000000 0.000000 0.000000 4.224716 2.917778 -22.271857 4.075898 -0.385677 5.254116 -11.472412 -25.844046 14.441497 0.000000 0.000000 0.000000 -7.942697 1.381048 35.402091 8.053995 -1.862451 -17.229544 3.627807 1.488267 31.649273 -6.605991 6.031092 -9.286697 0.000000 0.000000 0.000000 -25.721382 -8.450554 3.556241 -57.895948 -21.135097 0.441810 -42.801129 -65.656569 34.492901 0.000000 0.000000 0.000000 14.337656 18.131586 8.823221 58.702246 16.848315 -0.206085 128.127783 78.502148 128.467641 0.000000 0.000000 0.000000 
0.003183 0.928547 -0.127337 -3.953984 -0.669797 10.031988 2.338214 -1.231832 -17.039792 -1.811008 0.130378 3.828710 10.531027 21.387941 7.192098 0.000000 0.000000 0.000000 4.375301 2.784556 -21.084252 3.868524 -0.346017 6.539550 -11.166186 -25.426881 13.305921 0.000000 0.000000 0.000000 -8.433113 1.482941 33.595329 8.179551 -1.969900 -16.759345 3.420681 0.949457 31.006967 -6.769694 6.022266 -11.353387 0.000000 0.000000 0.000000 -25.593990 -7.949860 3.436754 -57.821424 -20.461092 0.142365 -36.164791 -63.026244 28.350605 0.000000 0.000000 0.000000 15.618113 18.262450 8.900687 58.162620 15.586791 -0.823864 110.151381 81.694192 110.914904 0.000000 0.000000 0.000000 
0.002438 0.929831 -0.119646 -3.835536 -0.451589 9.171144 2.052919 -1.158029 -15.441880 -1.484184 0.088157 3.554189 10.041909 20.562025 6.493694 0.000000 0.000000 0.000000 4.381203 2.610515 -19.855455 3.511592 -0.283818 7.594582 -11.363356 -25.718528 13.148369 0.000000 0.000000 0.000000 -8.971574 1.540377 31.726521 8.439478 -1.994555 -17.334176 3.462681 0.383117 30.929657 -7.043476 6.140109 -12.775684 0.000000 0.000000 0.000000 -26.422832 -7.518735 3.320667 -57.109622 -19.015919 -0.658701 -34.078369 -59.598928 25.209947 0.000000 0.000000 0.000000 17.558390 18.161697 9.014861 56.908302 14.385291 -1.503037 75.420613 82.267683 75.747461 0.000000 0.000000 0.000000 
